# xmcd
#
# Track frame offsets: 
#        150
#        16642
#        29462
#        42342
#        55295
#        69075
#        80585
#        93270
#        105320
#        114367
#        132402
#        146595
#        159740
#        170835
#        182657
#        200037
#        226440
#        239790
#        252552
#        265697
#        278725
#        289825
#        304385
#
# Disc length: 4235 seconds
#
# Revision: 0
# Processed by: cddbd v1.5.2PL0 Copyright (c) Steve Scherf et al.
# Submitted via: ExactAudioCopy v0.95b3
#
DISCID=4f108917
DTITLE=Dave Clark Five  - The Complete History - Vol. 6   Play Gool Ol
DTITLE=d Rock 'n' Roll -18 Golden Oldies-Dave Clark and Friends 
DYEAR=1900
DGENRE=
TTITLE0=Good Old Rock 'n' Roll
TTITLE1=Raining In My Heart
TTITLE2=Lucille
TTITLE3=Reelin' And Rockin'
TTITLE4=More Good Old Rock 'n' Roll
TTITLE5=Loving You
TTITLE6=Memphis, Tennessee
TTITLE7=One Night
TTITLE8=Lawdy Miss Clawdy
TTITLE9=Southern Man
TTITLE10=Bring It On Home To Me
TTITLE11=Signs
TTITLE12=Won't You Be My Lady
TTITLE13=The Time Has Come
TTITLE14=If You've Got A Little Love To Give
TTITLE15=Officer McKirk
TTITLE16=Paradise Is Half As Nice
TTITLE17=Draggin' The Line
TTITLE18=Think Of Me
TTITLE19=One-Eyed, Blue-Suited, Gun-Totin' Man
TTITLE20=Right Or Wrong
TTITLE21=I Don't Know
TTITLE22=Put A Little Love In Your Heart
EXTD=
EXTT0=
EXTT1=
EXTT2=
EXTT3=
EXTT4=
EXTT5=
EXTT6=
EXTT7=
EXTT8=
EXTT9=
EXTT10=
EXTT11=
EXTT12=
EXTT13=
EXTT14=
EXTT15=
EXTT16=
EXTT17=
EXTT18=
EXTT19=
EXTT20=
EXTT21=
EXTT22=
PLAYORDER=
